<?xml version="1.0" encoding="UTF-8" standalone="no"?>
<!DOCTYPE svg PUBLIC "-//W3C//DTD SVG 1.1//EN" "http://www.w3.org/Graphics/SVG/1.1/DTD/svg11.dtd">
<svg width="100%" height="100%" viewBox="0 0 2400 2400" version="1.1" xmlns="http://www.w3.org/2000/svg" xmlns:xlink="http://www.w3.org/1999/xlink" xml:space="preserve" xmlns:serif="http://www.serif.com/" style="fill-rule:evenodd;clip-rule:evenodd;stroke-linejoin:round;stroke-miterlimit:2;">
    <rect id="Artboard1" x="0" y="0" width="2400" height="2400" style="fill:none;"/>
    <g id="Artboard11" serif:id="Artboard1">
        <g transform="matrix(3.89292,0,0,3.89292,-354.044,-372.505)">
            <path d="M450.14,640.629L400,690.769L349.86,640.629C366.202,643.874 382.97,645.531 400,645.531C417.03,645.531 433.798,643.874 450.14,640.629ZM145.229,390.76C145.229,407.79 146.886,424.558 150.131,440.89L100,390.76L150.131,340.629C146.886,356.961 145.229,373.73 145.229,390.76ZM649.869,440.89C653.114,424.558 654.771,407.79 654.771,390.76C654.771,373.73 653.114,356.961 649.869,340.629L700,390.76L649.869,440.89ZM478.82,158.508L478.82,197.25C555.178,228.373 608.878,303.342 608.878,390.762C608.878,439.295 592.35,483.922 564.632,519.349L582.323,554.732C621.411,511.294 645.205,453.807 645.205,390.762C645.205,282.908 575.576,191.32 478.82,158.508ZM429.216,597.606C419.662,598.95 409.908,599.64 400,599.64C390.083,599.64 380.32,598.95 370.775,597.615L319.754,622.526C344.902,631.235 371.901,635.967 400,635.967C428.099,635.967 455.098,631.235 480.246,622.526L429.216,597.606ZM154.795,390.762C154.795,453.807 178.589,511.294 217.677,554.732L235.359,519.359C207.641,483.913 191.122,439.285 191.122,390.762C191.122,303.124 244.958,228.328 321.18,197.259L321.18,158.508C224.424,191.32 154.795,282.908 154.795,390.762Z"/>
        </g>
        <g transform="matrix(3.89292,0,0,3.89292,-354.044,-372.505)">
            <path d="M400,528.215L249.387,601.774L400,300.547L400,528.215ZM400,250.904L200.203,650.497L400,552.923L599.797,650.497L400,250.904Z"/>
        </g>
        <g transform="matrix(5.31676,0,0,5.31676,969.419,100.402)">
            <path d="M68.6,30.8C68.6,31 68.6,31.2 68.5,31.3C68.4,31.5 68.3,31.6 68.2,31.8C68.1,31.9 67.9,32 67.7,32.1C67.5,32.2 67.3,32.2 67.2,32.2L41.5,32.2C41.3,32.2 41.1,32.2 41,32.1C40.8,32 40.7,31.9 40.5,31.8C40.3,31.7 40.3,31.5 40.2,31.3C40.1,31.1 40.1,30.9 40.1,30.8L40.1,27.8C40.1,27.6 40.1,27.4 40.2,27.3C40.3,27.1 40.4,27 40.5,26.8C40.6,26.7 40.8,26.6 41,26.5C41.2,26.4 41.4,26.4 41.5,26.4L67.2,26.4C67.4,26.4 67.6,26.4 67.7,26.5C67.9,26.6 68,26.7 68.2,26.8C68.3,26.9 68.4,27.1 68.5,27.3C68.6,27.5 68.6,27.7 68.6,27.8L68.6,30.8Z" style="fill:rgb(223,86,70);fill-rule:nonzero;"/>
        </g>
        <g transform="matrix(5.31676,0,0,5.31676,969.419,100.402)">
            <path d="M79.9,39.2C79.9,39.4 79.9,39.6 79.8,39.7C79.7,39.9 79.6,40 79.5,40.2C79.4,40.3 79.2,40.4 79,40.5C78.8,40.6 78.6,40.6 78.5,40.6L46.9,40.6C46.7,40.6 46.5,40.6 46.4,40.5C46.2,40.4 46.1,40.3 45.9,40.2C45.8,40.1 45.7,39.9 45.6,39.7C45.5,39.6 45.5,39.4 45.5,39.2L45.5,36.2C45.5,36 45.5,35.8 45.6,35.7C45.7,35.5 45.8,35.4 45.9,35.2C46,35.1 46.2,35 46.4,34.9C46.6,34.8 46.8,34.8 46.9,34.8L78.3,34.8C78.5,34.8 78.7,34.8 78.8,34.9C79,35 79.1,35.1 79.3,35.2C79.4,35.3 79.5,35.5 79.6,35.7C79.7,35.9 79.7,36.1 79.7,36.2L79.9,39.2Z" style="fill:rgb(223,86,70);fill-rule:nonzero;"/>
        </g>
        <g transform="matrix(5.31676,0,0,5.31676,969.419,100.402)">
            <path d="M88.6,47.9C88.6,48.1 88.6,48.3 88.5,48.4C88.4,48.6 88.3,48.7 88.2,48.9C88.1,49 87.9,49.1 87.7,49.2C87.5,49.3 87.3,49.3 87.2,49.3L52.8,49.3C52.6,49.3 52.4,49.3 52.3,49.2C52.1,49.1 52,49 51.8,48.9C51.7,48.8 51.6,48.6 51.5,48.4C51.4,48.2 51.4,48 51.4,47.9L51.4,44.9C51.4,44.7 51.4,44.5 51.5,44.4C51.6,44.2 51.7,44.1 51.8,44C51.9,43.9 52.1,43.8 52.2,43.7C52.4,43.6 52.5,43.6 52.7,43.6L87.1,43.6C87.3,43.6 87.5,43.6 87.6,43.7C87.8,43.8 87.9,43.9 88.1,44C88.2,44.1 88.3,44.3 88.4,44.5C88.5,44.7 88.5,44.9 88.5,45L88.6,47.9Z" style="fill:rgb(223,86,70);fill-rule:nonzero;"/>
        </g>
        <g transform="matrix(5.31676,0,0,5.31676,969.419,100.402)">
            <path d="M88.6,56.5C88.6,56.7 88.6,56.9 88.5,57C88.4,57.2 88.3,57.3 88.2,57.5C88.1,57.6 87.9,57.7 87.7,57.8C87.5,57.9 87.3,57.9 87.2,57.9L52.8,57.9C52.6,57.9 52.4,57.9 52.3,57.8C52.1,57.7 52,57.6 51.8,57.5C51.7,57.4 51.6,57.2 51.5,57C51.4,56.8 51.4,56.6 51.4,56.5L51.4,53.5C51.4,53.3 51.4,53.1 51.5,53C51.6,52.8 51.7,52.7 51.8,52.5C51.9,52.4 52.1,52.3 52.3,52.2C52.5,52.1 52.7,52.1 52.8,52.1L87.2,52.1C87.4,52.1 87.6,52.1 87.7,52.2C87.9,52.3 88,52.4 88.2,52.5C88.3,52.6 88.4,52.8 88.5,53C88.6,53.2 88.6,53.4 88.6,53.5L88.6,56.5Z" style="fill:rgb(223,86,70);fill-rule:nonzero;"/>
        </g>
        <g transform="matrix(5.31676,0,0,5.31676,969.419,100.402)">
            <path d="M79.9,64.9C79.9,65.1 79.9,65.3 79.8,65.4C79.7,65.6 79.6,65.701 79.5,65.9C79.4,66 79.2,66.1 79,66.2C78.8,66.3 78.6,66.3 78.5,66.3L46.9,66.3C46.7,66.3 46.5,66.3 46.4,66.2C46.2,66.1 46.1,66 45.9,65.9C45.8,65.8 45.7,65.6 45.6,65.4C45.5,65.201 45.5,65 45.5,64.9L45.5,61.9C45.5,61.7 45.5,61.5 45.6,61.4C45.7,61.2 45.8,61.1 45.9,60.9C46,60.7 46.2,60.7 46.4,60.6C46.6,60.5 46.8,60.5 46.9,60.5L78.3,60.5C78.5,60.5 78.7,60.5 78.8,60.6C79,60.7 79.1,60.8 79.2,60.9C79.3,61 79.4,61.2 79.5,61.4C79.6,61.6 79.6,61.7 79.6,61.9L79.9,64.9Z" style="fill:rgb(223,86,70);fill-rule:nonzero;"/>
        </g>
        <g transform="matrix(5.31676,0,0,5.31676,969.419,100.402)">
            <path d="M68.6,73.6C68.6,73.8 68.6,74 68.5,74.1C68.4,74.3 68.3,74.4 68.2,74.6C68.1,74.7 67.9,74.8 67.7,74.9C67.5,75 67.3,75 67.2,75L41.5,75C41.3,75 41.1,75 41,74.9C40.8,74.8 40.7,74.7 40.5,74.6C40.4,74.5 40.3,74.3 40.2,74.1C40.1,73.9 40.1,73.8 40.1,73.6L40.1,70.6C40.1,70.4 40.1,70.2 40.2,70.1C40.3,69.9 40.4,69.8 40.5,69.6C40.6,69.5 40.8,69.4 41,69.3C41.2,69.2 41.4,69.2 41.5,69.2L67.2,69.2C67.4,69.2 67.6,69.2 67.7,69.3C67.9,69.4 68,69.5 68.2,69.6C68.3,69.7 68.4,69.9 68.5,70.1C68.6,70.3 68.6,70.4 68.6,70.6L68.6,73.6Z" style="fill:rgb(223,86,70);fill-rule:nonzero;"/>
        </g>
        <g transform="matrix(5.31676,0,0,5.31676,969.419,100.402)">
            <path d="M19.8,4.8C19.8,5 19.8,5.2 19.9,5.3C20,5.5 20.1,5.6 20.2,5.8C20.3,5.9 20.5,6 20.7,6.1C20.9,6.2 21.1,6.2 21.2,6.2L46.9,6.2C47.1,6.2 47.3,6.2 47.4,6.1C47.6,6 47.7,5.9 47.9,5.8C48,5.7 48.1,5.5 48.2,5.3C48.3,5.1 48.3,4.9 48.3,4.8L48.3,1.8C48.3,1.6 48.3,1.4 48.2,1.3C48.1,1.1 48,1 47.9,0.8C47.8,0.7 47.6,0.6 47.4,0.5C47.2,0.4 47,0.4 46.9,0.4L21.1,0.4C20.9,0.4 20.7,0.4 20.6,0.5C20.4,0.6 20.3,0.7 20.1,0.8C20,0.9 19.9,1.1 19.8,1.3C19.7,1.5 19.7,1.7 19.7,1.8L19.7,4.8L19.8,4.8Z" style="fill:rgb(223,86,70);fill-rule:nonzero;"/>
        </g>
        <g transform="matrix(5.31676,0,0,5.31676,969.419,100.402)">
            <path d="M8.7,13.4C8.7,13.6 8.7,13.8 8.8,13.9C8.9,14.1 9,14.2 9.1,14.4C9.2,14.5 9.4,14.6 9.6,14.7C9.8,14.8 10,14.8 10.1,14.8L41.5,14.8C41.7,14.8 41.9,14.8 42,14.7C42.2,14.6 42.3,14.5 42.5,14.4C42.6,14.3 42.7,14.1 42.8,13.9C42.9,13.7 42.9,13.5 42.9,13.4L42.9,10.4C42.9,10.2 42.9,10 42.8,9.9C42.7,9.7 42.6,9.6 42.5,9.4C42.4,9.3 42.2,9.2 42,9.1C41.8,9 41.7,9 41.5,9L10.1,9C9.9,9 9.7,9 9.6,9.1C9.4,9.2 9.3,9.3 9.1,9.4C9,9.5 8.9,9.7 8.8,9.9C8.7,10.1 8.7,10.3 8.7,10.4L8.7,13.4Z" style="fill:rgb(223,86,70);fill-rule:nonzero;"/>
        </g>
        <g transform="matrix(5.31676,0,0,5.31676,969.419,100.402)">
            <path d="M0,22.1C0,22.3 0,22.5 0.099,22.6C0.199,22.8 0.299,22.9 0.399,23.1C0.499,23.2 0.699,23.3 0.899,23.4C1.1,23.5 1.3,23.5 1.4,23.5L35.8,23.5C36,23.5 36.2,23.5 36.3,23.4C36.5,23.3 36.6,23.2 36.8,23.1C36.9,23 37,22.8 37.1,22.6C37.2,22.4 37.2,22.3 37.2,22.1L37.2,19.1C37.2,18.9 37.2,18.7 37.1,18.6C37,18.4 36.9,18.3 36.8,18.1C36.7,18 36.5,17.9 36.3,17.8C36.1,17.7 36,17.7 35.8,17.7L1.4,17.7C1.2,17.7 1,17.7 0.9,17.8C0.7,17.9 0.6,18 0.4,18.1C0.3,18.2 0.2,18.4 0.1,18.6C0,18.8 0,19 0,19.1L0,22.1Z" style="fill:rgb(223,86,70);fill-rule:nonzero;"/>
        </g>
        <g transform="matrix(5.31676,0,0,5.31676,969.419,100.402)">
            <path d="M0,30.8C0,31 0,31.2 0.099,31.3C0.199,31.5 0.299,31.6 0.399,31.8C0.499,32 0.699,32 0.899,32.1C1.1,32.2 1.3,32.2 1.4,32.2L35.8,32.2C36,32.2 36.2,32.2 36.3,32.1C36.5,32 36.6,31.9 36.8,31.8C36.9,31.7 37,31.5 37.1,31.3C37.2,31.1 37.2,31 37.2,30.8L37.2,27.8C37.2,27.6 37.2,27.4 37.1,27.3C37,27.1 36.9,27 36.8,26.8C36.7,26.7 36.5,26.6 36.3,26.5C36.1,26.4 35.9,26.4 35.8,26.4L1.4,26.4C1.2,26.4 1,26.4 0.9,26.5C0.7,26.6 0.6,26.7 0.4,26.8C0.3,26.9 0.2,27.1 0.1,27.3C0,27.5 0,27.7 0,27.8L0,30.8Z" style="fill:rgb(223,86,70);fill-rule:nonzero;"/>
        </g>
        <g transform="matrix(5.31676,0,0,5.31676,969.419,100.402)">
            <path d="M8.7,39.2C8.7,39.4 8.7,39.6 8.8,39.7C8.9,39.9 9,40 9.1,40.2C9.2,40.3 9.4,40.4 9.6,40.5C9.8,40.6 10,40.6 10.1,40.6L41.5,40.6C41.7,40.6 41.9,40.6 42,40.5C42.2,40.4 42.3,40.3 42.5,40.2C42.6,40.1 42.7,39.9 42.8,39.7C42.9,39.5 42.9,39.4 42.9,39.2L42.9,36.2C42.9,36 42.9,35.8 42.8,35.7C42.7,35.5 42.6,35.4 42.5,35.2C42.4,35 42.2,35 42,34.9C41.8,34.8 41.6,34.8 41.5,34.8L10.1,34.8C9.9,34.8 9.7,34.8 9.6,34.9C9.4,35 9.3,35.1 9.1,35.2C9,35.3 8.9,35.5 8.8,35.7C8.7,35.9 8.7,36.1 8.7,36.2L8.7,39.2Z" style="fill:rgb(223,86,70);fill-rule:nonzero;"/>
        </g>
        <g transform="matrix(5.31676,0,0,5.31676,969.419,100.402)">
            <path d="M19.8,47.9C19.8,48.1 19.8,48.3 19.9,48.4C20,48.6 20.1,48.7 20.2,48.9C20.3,49 20.5,49.1 20.7,49.2C20.9,49.3 21.1,49.3 21.2,49.3L46.9,49.3C47.1,49.3 47.3,49.3 47.4,49.2C47.6,49.1 47.7,49 47.9,48.9C48,48.8 48.1,48.6 48.2,48.4C48.3,48.2 48.3,48 48.3,47.9L48.3,44.9C48.3,44.7 48.3,44.5 48.2,44.4C48.1,44.2 48,44.1 47.9,44C47.8,43.9 47.6,43.8 47.5,43.7C47.3,43.6 47.2,43.6 47,43.6L21.1,43.6C20.9,43.6 20.7,43.6 20.6,43.7C20.4,43.8 20.3,43.9 20.1,44C20,44.1 19.9,44.3 19.8,44.5C19.7,44.7 19.7,44.9 19.7,45L19.7,47.9L19.8,47.9Z" style="fill:rgb(223,86,70);fill-rule:nonzero;"/>
        </g>
    </g>
</svg>
